<svg width="1927" height="1927" viewBox="0 0 1927 1927" fill="none" xmlns="http://www.w3.org/2000/svg">
<circle cx="963.016" cy="963.016" r="435.011" transform="rotate(-0.0740777 963.016 963.016)" stroke="#FC354C" stroke-width="93"/>
<ellipse cx="1142.12" cy="791.538" rx="126.858" ry="125.971" transform="rotate(45.0901 1142.12 791.538)" fill="#FC354C" fill-opacity="0.9"/>
<ellipse cx="735.542" cy="1012.96" rx="126.858" ry="125.971" transform="rotate(45.0901 735.542 1012.96)" fill="#FC354C" fill-opacity="0.9"/>
<ellipse cx="945.762" cy="1200.22" rx="126.858" ry="125.971" transform="rotate(45.0901 945.762 1200.22)" fill="#FC354C" fill-opacity="0.9"/>
<ellipse cx="1184.35" cy="1062.59" rx="126.858" ry="125.971" transform="rotate(45.0901 1184.35 1062.59)" fill="#FC354C" fill-opacity="0.9"/>
<path d="M934.285 839.387C887.19 886.334 810.632 885.985 763.288 838.491C715.943 790.998 715.834 714.439 762.929 667.492C810.024 620.544 886.583 620.894 933.927 668.388C981.271 715.881 981.38 792.44 934.285 839.387Z" fill="#FC354C" fill-opacity="0.2" stroke="#FC354C" stroke-width="11"/>
<path d="M1013.65 857.583L1066.42 910.515L1035.52 918.016L1006.06 888.457L1013.65 857.583Z" fill="#FC354C"/>
<path d="M892.637 884.83L957.333 847.407L956.657 879.195L920.529 900.093L892.637 884.83Z" fill="#FC354C"/>
<path d="M879.485 1009.84L865.902 936.345L895.626 947.631L903.212 988.674L879.485 1009.84Z" fill="#FC354C"/>
<path d="M996.573 1060.63L922.339 1051.95L941.885 1026.87L983.34 1031.72L996.573 1060.63Z" fill="#FC354C"/>
<path d="M1078.49 969.658L1042.03 1034.9L1026.35 1007.24L1046.71 970.803L1078.49 969.658Z" fill="#FC354C"/>
<path d="M960.932 848.497L987.647 834.616L1010.81 855.306L998.082 884.969L965.487 880.343L960.932 848.497Z" fill="#FC354C"/>
<path d="M1070.48 914.074L1092.52 936.223L1078.06 964.99L1043.91 961.168L1039.14 927.844L1070.48 914.074Z" fill="#FC354C"/>
<path d="M1041.03 1036.54L1028.52 1063.44L998.336 1058.91L990.672 1026.48L1018.67 1012.01L1041.03 1036.54Z" fill="#FC354C"/>
<path d="M917.612 1048.92L888.202 1043.86L881.919 1013.71L909.469 997.975L932.689 1021.13L917.612 1048.92Z" fill="#FC354C"/>
<path d="M865.102 931.648L857.276 902.9L883.859 887.684L911.087 908.224L898.649 936.901L865.102 931.648Z" fill="#FC354C"/>
<circle cx="969.575" cy="954.976" r="65.0329" transform="rotate(45.0901 969.575 954.976)" fill="#FC354C"/>
<g filter="url(#filter0_d)">
<path d="M1041.47 797.451C1037.96 796.94 1034.88 795.364 1032.21 792.723C1029.61 790.137 1028.18 787.396 1027.92 784.5C1027.66 781.492 1028.39 779.085 1030.12 777.278C1031.85 775.471 1033.39 774.418 1034.76 774.122C1035.45 776.677 1036.96 779.111 1039.29 781.421C1041.67 783.787 1043.75 785.238 1045.5 785.772C1047.37 786.304 1049.4 786.556 1051.59 786.527L1097.49 762.582L1104.74 758.387C1106.92 757.132 1108.7 755.77 1110.11 754.302C1115.02 749.162 1115.77 743.521 1112.35 737.377C1118.35 740.029 1123.18 741.248 1126.84 741.032C1132.58 740.676 1138.69 738.755 1145.16 735.268L1184.19 713.087C1184.73 708.898 1183.79 705.593 1181.34 703.172C1178.9 700.751 1176.12 699.032 1172.98 698.014C1173.4 696.447 1174.2 695.042 1175.39 693.8C1176.63 692.501 1178.04 691.534 1179.62 690.9C1181.26 690.321 1182.95 690.075 1184.7 690.163C1188.54 690.447 1192.4 692.514 1196.28 696.366C1200.16 700.217 1202.33 704.677 1202.78 709.745C1207.82 710.124 1212.39 712.35 1216.49 716.421C1220.65 720.548 1222.87 724.951 1223.16 729.631C1228.86 730.894 1233.55 733.34 1237.21 736.972C1240.87 740.603 1243.02 744.115 1243.67 747.508C1244.37 750.956 1243.56 753.894 1241.24 756.322C1240.16 757.452 1238.89 758.11 1237.41 758.297C1237.05 756.071 1236.01 754.106 1234.3 752.4C1230.58 748.714 1225.71 748.89 1219.69 752.929L1197.22 798.141C1194.4 803.81 1194.48 810.5 1197.49 818.211C1198.34 820.374 1199.27 822.508 1200.28 824.614C1192.95 820.975 1187.51 821.02 1183.95 824.747C1182.6 826.159 1181.63 827.622 1181.05 829.135L1155.48 888.272C1155.44 893.291 1156.67 897.039 1159.16 899.515C1161.66 901.99 1164.06 903.436 1166.36 903.852C1166.54 904.909 1166.03 906.058 1164.85 907.301C1163.66 908.543 1162.36 909.509 1160.94 910.197C1159.59 910.828 1158.11 911.126 1156.52 911.092C1153.13 911.025 1149.71 909.286 1146.27 905.875C1142.84 902.464 1140.76 898.532 1140.04 894.081C1135.32 893.14 1131.13 890.854 1127.47 887.223C1123.87 883.646 1121.65 879.633 1120.83 875.183C1116.55 874.571 1112.72 872.587 1109.34 869.231C1105.95 865.874 1103.83 862.39 1102.96 858.777C1102.14 855.108 1102.95 851.891 1105.37 849.126C1106.89 847.545 1108.14 846.859 1109.12 847.069C1109.7 849.515 1110.77 851.508 1112.32 853.049C1115.59 856.295 1118.54 857.901 1121.17 857.866L1135.5 829.991L1090.49 785.341L1067.1 798.616C1065.98 804.43 1067.02 808.932 1070.24 812.124C1073.51 815.37 1076.41 817.311 1078.93 817.946C1078.57 819.568 1077.53 821.283 1075.8 823.09C1074.13 824.841 1071.78 825.541 1068.77 825.191C1065.81 824.784 1062.97 823.233 1060.25 820.536C1057.53 817.84 1055.71 814.658 1054.79 810.991C1051.44 810.422 1048.47 808.844 1045.86 806.258C1043.31 803.727 1041.85 800.792 1041.47 797.451ZM1143.02 815.171L1186.14 730.709L1104.75 777.206L1143.02 815.171ZM1139.07 851.69C1140.07 852.68 1141.65 852.046 1143.8 849.787C1147.58 845.833 1150.67 841.415 1153.07 836.532L1159.38 823.484C1164.29 813.829 1167.66 808.041 1169.5 806.121C1172.46 802.903 1175.82 802.161 1179.56 803.896C1176.49 799.309 1175.32 795.784 1176.06 793.32C1176.32 792.258 1176.5 791.391 1176.6 790.72C1176.75 790.105 1176.94 789.406 1177.14 788.622C1177.46 787.837 1177.86 786.856 1178.34 785.679C1178.81 784.502 1179.53 782.847 1180.49 780.716L1190.47 759.757C1193.03 754.593 1194.09 749.812 1193.65 745.413C1193.52 744.076 1193.2 743.049 1192.7 742.331C1183.35 759.685 1177.43 770.859 1174.92 775.855C1158.89 809.022 1149.44 828.746 1146.56 835.03L1139.07 851.69ZM1156.32 883.661L1156 884.334L1156.32 883.661Z" fill="black"/>
</g>
<g filter="url(#filter1_d)">
<path d="M822.342 1066.93C824.965 1069.38 826.634 1072.45 827.347 1076.13C828.045 1079.74 827.68 1082.78 826.252 1085.27C824.762 1087.85 822.788 1089.37 820.329 1089.82C817.871 1090.28 815.991 1090.23 814.69 1089.67C815.566 1087.21 815.691 1084.36 815.068 1081.14C814.429 1077.84 813.531 1075.47 812.374 1074.01C811.126 1072.5 809.585 1071.11 807.751 1069.86L756.073 1062.49L747.676 1061.66C745.161 1061.41 742.905 1061.47 740.908 1061.84C733.916 1063.13 730.099 1067.25 729.456 1074.2C725.978 1068.57 722.657 1064.77 719.493 1062.81C714.525 1059.76 708.368 1057.76 701.024 1056.81L656.051 1052.01C653.223 1055.08 652.135 1058.3 652.789 1061.67C653.442 1065.05 654.781 1068.06 656.805 1070.7C655.57 1071.73 654.108 1072.39 652.418 1072.71C650.651 1073.03 648.933 1072.99 647.262 1072.59C645.577 1072.1 644.033 1071.32 642.628 1070.22C639.605 1067.76 637.574 1063.85 636.534 1058.48C635.495 1053.11 636.224 1048.25 638.723 1043.9C634.754 1040.66 632.22 1036.2 631.121 1030.52C630.007 1024.77 630.66 1019.92 633.08 1015.98C629.056 1011.64 626.555 1006.94 625.574 1001.88C624.594 996.814 624.797 992.724 626.183 989.608C627.554 986.416 629.892 984.514 633.195 983.904C634.732 983.62 636.165 983.831 637.496 984.539C636.531 986.544 636.279 988.736 636.74 991.114C637.735 996.253 641.876 998.943 649.164 999.185L693.445 975.75C699.004 972.816 702.722 967.362 704.6 959.389C705.121 957.147 705.558 954.882 705.91 952.592C709.93 959.794 714.476 962.926 719.546 961.99C721.467 961.635 723.097 961.016 724.438 960.132L779.185 927.255C782.065 923.228 783.171 919.488 782.503 916.036C781.835 912.585 780.662 910.021 778.985 908.345C779.436 907.388 780.507 906.753 782.197 906.441C783.887 906.128 785.514 906.106 787.077 906.373C788.564 906.654 789.957 907.271 791.255 908.223C794.035 910.251 795.885 913.643 796.806 918.399C797.727 923.154 797.223 927.537 795.294 931.548C798.678 935.054 800.86 939.338 801.841 944.4C802.806 949.386 802.37 953.915 800.533 957.988C803.736 960.972 805.791 964.802 806.697 969.481C807.603 974.16 807.392 978.211 806.066 981.634C804.662 985.071 802.17 987.2 798.589 988.02C796.438 988.418 795.012 988.244 794.311 987.5C795.216 985.188 795.46 982.958 795.045 980.81C794.168 976.285 792.63 973.272 790.43 971.772L762.738 985.945L774.789 1048.19L801.726 1051.08C805.957 1047.04 807.642 1042.79 806.781 1038.34C805.905 1033.82 804.598 1030.56 802.862 1028.58C804.081 1027.48 805.92 1026.71 808.378 1026.25C810.76 1025.81 813.103 1026.61 815.407 1028.65C817.634 1030.7 819.112 1033.6 819.84 1037.36C820.567 1041.12 820.275 1044.75 818.963 1048.25C821.419 1050.65 822.995 1053.66 823.693 1057.26C824.376 1060.79 823.926 1064.01 822.342 1066.93ZM748.094 993.537L664.414 1036.65L758.341 1046.46L748.094 993.537ZM772.072 966.346C771.805 964.965 770.135 964.559 767.062 965.126C761.684 966.12 756.616 967.891 751.857 970.438L739.221 977.302C729.674 982.243 723.595 984.956 720.983 985.438C716.696 986.31 713.489 984.956 711.364 981.376C711.313 986.868 710.285 990.394 708.28 991.956C707.462 992.664 706.821 993.259 706.358 993.742C705.879 994.148 705.331 994.606 704.714 995.118C704.005 995.566 703.119 996.127 702.056 996.8C700.993 997.474 699.46 998.392 697.457 999.557L677.289 1010.67C672.238 1013.35 668.649 1016.6 666.522 1020.41C665.87 1021.56 665.549 1022.57 665.559 1023.45C683.155 1014.87 694.41 1009.3 699.322 1006.72C731.432 989.267 750.46 978.84 756.406 975.437L772.072 966.346ZM775.872 930.489L776.519 930.131L775.872 930.489Z" fill="black"/>
</g>
<g filter="url(#filter2_d)">
<path d="M1147.75 964.133C1147.4 960.682 1148.13 957.4 1149.92 954.287C1151.68 951.238 1153.87 949.241 1156.49 948.294C1159.14 947.451 1161.48 947.652 1163.53 948.897C1165.58 950.143 1166.89 951.382 1167.48 952.614C1165.31 953.834 1163.06 956.454 1160.74 960.476C1158.39 964.562 1159.16 969.589 1163.06 975.557L1209.11 1003.58C1212.12 1005.41 1214.73 1006.12 1216.95 1005.72C1220.37 1005.18 1224.55 1003.25 1229.48 999.944C1228.99 1006.04 1229.13 1010.15 1229.89 1012.28C1231.19 1015.71 1233.35 1018.33 1236.36 1020.16L1276.84 1044.8C1283.04 1045.59 1287.8 1043.1 1291.13 1037.33C1292.4 1035.12 1292.9 1032.98 1292.64 1030.89C1294.01 1030.76 1295.33 1031.08 1296.61 1031.86C1297.89 1032.64 1298.89 1033.68 1299.6 1034.99C1300.32 1036.31 1300.79 1037.73 1301.02 1039.28C1301.38 1042.56 1300.45 1046.11 1298.24 1049.94C1296 1053.83 1293.04 1056.5 1289.36 1057.94C1290.42 1061.04 1290.04 1064.18 1288.2 1067.36C1286.37 1070.53 1283.81 1072.43 1280.51 1073.06C1281.6 1076.26 1281.59 1078.84 1280.46 1080.78C1279.3 1082.79 1278.25 1084.17 1277.31 1084.91C1276.33 1085.71 1275.31 1086.28 1274.26 1086.6C1272.83 1087.13 1270.52 1087.31 1267.35 1087.13L1125.41 1082.23L1154.67 1100.04C1157.49 1101.75 1159.92 1102.4 1161.97 1101.99C1165.04 1101.31 1169.11 1099.28 1174.18 1095.88C1173.77 1101.68 1173.87 1105.63 1174.46 1107.75C1175.47 1111.25 1177.34 1113.84 1180.09 1115.51L1220.29 1139.98C1223.84 1140.12 1227.01 1139.55 1229.82 1138.28C1232.59 1137.08 1234.78 1135.08 1236.39 1132.29C1237.96 1129.57 1238.74 1126.93 1238.74 1124.39C1240.3 1124.38 1242.07 1124.97 1244.05 1126.18C1246.1 1127.43 1247.28 1129.5 1247.59 1132.41C1247.97 1135.35 1247.22 1138.45 1245.35 1141.69C1243.48 1144.93 1240.99 1147.31 1237.87 1148.83C1238.22 1152.11 1237.56 1155.21 1235.87 1158.13C1234.15 1161.12 1231.78 1163.22 1228.74 1164.44C1229.01 1168.02 1228.26 1171.33 1226.51 1174.38C1224.75 1177.43 1222.55 1179.38 1219.9 1180.22C1217.28 1181.17 1214.95 1181.02 1212.9 1179.77C1210.86 1178.52 1209.54 1177.29 1208.95 1176.05C1211.13 1174.83 1213.41 1172.15 1215.8 1168C1218.19 1163.85 1217.35 1158.86 1213.27 1153.05L1172.69 1128.36C1169.94 1126.68 1167.59 1126.04 1165.64 1126.43C1162.41 1127.09 1158.22 1129.1 1153.09 1132.46C1153.3 1125.49 1153.17 1121.16 1152.68 1119.46C1151.89 1116.79 1150.08 1114.6 1147.27 1112.88L1097.52 1084.98C1091.96 1084.74 1087.73 1087.12 1084.85 1092.12C1083.58 1094.32 1083.08 1096.47 1083.34 1098.56C1081.97 1098.69 1080.65 1098.36 1079.37 1097.58C1078.09 1096.81 1077.09 1095.76 1076.38 1094.45C1075.67 1093.14 1075.19 1091.71 1074.96 1090.17C1074.61 1086.89 1075.36 1083.62 1077.23 1080.38C1079.1 1077.14 1081.43 1074.61 1084.2 1072.79C1084.28 1065.92 1087.51 1060.83 1093.9 1057.54C1093.37 1054.41 1093.65 1051.91 1094.73 1050.03C1095.82 1048.14 1096.78 1046.85 1097.63 1046.13C1098.47 1045.42 1099.53 1044.93 1100.81 1044.66C1102.74 1044.16 1106.88 1044.1 1113.23 1044.46L1249.42 1046.51L1155.21 989.178C1148.24 988.529 1143.58 990.248 1141.22 994.334C1138.87 998.421 1137.69 1001.74 1137.69 1004.28C1136.13 1004.29 1134.33 1003.67 1132.28 1002.43C1130.3 1001.22 1129.12 999.147 1128.74 996.202C1128.43 993.296 1129.19 990.254 1131.02 987.075C1132.86 983.897 1135.34 981.465 1138.47 979.778C1138.22 976.47 1138.97 973.292 1140.73 970.243C1142.45 967.26 1144.79 965.223 1147.75 964.133ZM1128.64 1055.28C1128.95 1056.09 1129.72 1056.86 1130.93 1057.6C1132.21 1058.38 1133.73 1059.04 1135.49 1059.58C1137.27 1060.23 1139.25 1060.78 1141.41 1061.22C1145.78 1062.04 1150.65 1062.59 1156.01 1062.87L1250.79 1064.82C1250.34 1063.94 1249.2 1062.94 1247.34 1061.81C1243.38 1059.39 1234.85 1057.93 1221.76 1057.41L1128.64 1055.28Z" fill="black"/>
</g>
<g filter="url(#filter3_d)">
<path d="M1018.89 1125.58C1021.84 1123.9 1025.1 1123.27 1028.67 1123.69C1032.16 1124.11 1034.9 1125.34 1036.87 1127.38C1038.77 1129.49 1039.6 1131.74 1039.36 1134.12C1039.13 1136.51 1038.58 1138.21 1037.73 1139.24C1035.7 1137.72 1032.38 1136.68 1027.77 1136.14C1023.08 1135.58 1018.9 1138.29 1015.22 1144.26L1009.89 1197.9C1009.54 1201.4 1010.02 1204.09 1011.34 1205.98C1013.3 1208.93 1016.83 1212.03 1021.93 1215.27C1016.24 1217.23 1012.6 1218.99 1011.02 1220.53C1008.51 1223.1 1007.08 1226.13 1006.73 1229.63L1002.04 1276.79C1004 1282.83 1008.28 1286.24 1014.9 1287.03C1017.43 1287.33 1019.57 1286.95 1021.34 1285.87C1022.04 1287.09 1022.32 1288.44 1022.17 1289.93C1022.03 1291.42 1021.52 1292.76 1020.65 1293.93C1019.78 1295.11 1018.7 1296.11 1017.41 1296.94C1014.62 1298.57 1011.03 1299.12 1006.64 1298.6C1002.18 1298.07 998.512 1296.39 995.634 1293.56C993.308 1295.77 990.323 1296.66 986.68 1296.23C983.037 1295.79 980.227 1294.18 978.248 1291.38C975.84 1293.66 973.521 1294.66 971.291 1294.4C968.986 1294.12 967.298 1293.69 966.228 1293.12C965.082 1292.53 964.138 1291.81 963.394 1290.97C962.301 1289.86 961.152 1287.8 959.947 1284.79L903.22 1151.74L899.83 1185.83C899.504 1189.1 899.97 1191.61 901.227 1193.34C903.153 1195.91 906.734 1198.86 911.968 1202.19C906.587 1204.12 903.074 1205.77 901.432 1207.16C898.719 1209.48 897.203 1212.24 896.885 1215.44L892.228 1262.26C893.626 1265.6 895.501 1268.31 897.851 1270.4C900.126 1272.48 902.862 1273.71 906.059 1274.09C909.182 1274.46 911.884 1274.14 914.166 1273.13C914.85 1274.57 915.078 1276.44 914.848 1278.75C914.611 1281.13 913.255 1283.05 910.78 1284.49C908.297 1286 905.197 1286.54 901.48 1286.09C897.763 1285.65 894.551 1284.29 891.844 1282.01C889.049 1283.63 885.979 1284.25 882.633 1283.85C879.213 1283.44 876.302 1282.08 873.9 1279.76C870.801 1281.43 867.504 1282.05 864.01 1281.64C860.515 1281.22 857.82 1279.96 855.924 1277.85C853.945 1275.8 853.075 1273.59 853.312 1271.21C853.549 1268.82 854.095 1267.11 854.95 1266.09C856.98 1267.61 860.374 1268.65 865.132 1269.22C869.89 1269.78 874 1267.03 877.463 1260.96L882.164 1213.69C882.483 1210.49 882.047 1208.06 880.857 1206.41C878.871 1203.69 875.265 1200.62 870.037 1197.21C876.385 1194.65 880.217 1192.8 881.533 1191.68C883.591 1189.89 884.784 1187.35 885.11 1184.07L888.749 1127.07C886.562 1121.83 882.606 1118.87 876.881 1118.19C874.353 1117.89 872.209 1118.28 870.447 1119.35C869.74 1118.13 869.461 1116.78 869.609 1115.29C869.758 1113.8 870.266 1112.47 871.136 1111.29C872.005 1110.11 873.083 1109.11 874.369 1108.28C877.163 1106.65 880.419 1106.06 884.137 1106.5C887.854 1106.94 891.126 1108.09 893.951 1109.93C900.158 1107.28 906.117 1108.25 911.828 1112.85C914.407 1111.12 916.775 1110.38 918.931 1110.64C921.087 1110.9 922.667 1111.27 923.67 1111.77C924.674 1112.27 925.574 1113.05 926.37 1114.13C927.642 1115.71 929.483 1119.51 931.893 1125.52L988.695 1252.14L999.611 1142.4C997.192 1135.7 993.641 1132.08 988.957 1131.52C984.274 1130.96 980.791 1131.19 978.509 1132.2C977.824 1130.76 977.601 1128.85 977.838 1126.47C978.067 1124.16 979.424 1122.24 981.906 1120.73C984.381 1119.29 987.44 1118.79 991.083 1119.22C994.726 1119.65 997.979 1120.98 1000.84 1123.21C1003.7 1121.66 1006.88 1121.1 1010.38 1121.52C1013.8 1121.92 1016.63 1123.28 1018.89 1125.58ZM928.811 1144.04C928.223 1144.65 927.859 1145.66 927.719 1147.08C927.57 1148.57 927.63 1150.23 927.899 1152.07C928.085 1153.98 928.446 1156.02 928.982 1158.2C930.129 1162.55 931.729 1167.27 933.782 1172.34L972.841 1260.66C973.443 1259.9 973.851 1258.44 974.066 1256.28C974.526 1251.66 972.17 1243.2 966.999 1230.9L928.811 1144.04Z" fill="black"/>
</g>
<path d="M860.444 727.324L875.216 742.142L866.724 744.085L858.475 735.81L860.444 727.324Z" fill="#FC354C"/>
<path d="M827.176 734.343L844.867 724.286L844.811 733.052L834.932 738.668L827.176 734.343Z" fill="#FC354C"/>
<path d="M824.061 768.774L820.013 748.444L828.258 751.68L830.519 763.033L824.061 768.774Z" fill="#FC354C"/>
<path d="M856.567 783.266L836.055 780.567L841.343 773.729L852.798 775.237L856.567 783.266Z" fill="#FC354C"/>
<path d="M878.788 758.507L868.998 776.355L864.561 768.659L870.028 758.692L878.788 758.507Z" fill="#FC354C"/>
<path d="M845.864 724.601L853.176 720.881L859.651 726.684L856.261 734.815L847.251 733.405L845.864 724.601Z" fill="#FC354C"/>
<path d="M876.349 743.141L882.52 749.341L878.65 757.218L869.216 756.023L867.762 746.811L876.349 743.141Z" fill="#FC354C"/>
<path d="M868.73 776.804L865.391 784.172L857.046 782.799L854.799 773.82L862.463 769.945L868.73 776.804Z" fill="#FC354C"/>
<path d="M834.738 779.712L826.605 778.195L824.748 769.851L832.283 765.625L838.783 772.106L834.738 779.712Z" fill="#FC354C"/>
<path d="M819.773 747.145L817.496 739.183L824.766 735.095L832.361 740.872L829.048 748.732L819.773 747.145Z" fill="#FC354C"/>
<ellipse cx="848.686" cy="754.01" rx="18.2062" ry="17.672" transform="rotate(45.0901 848.686 754.01)" fill="#FC354C"/>
<ellipse cx="899.574" cy="707.044" rx="36.6802" ry="36.4237" transform="rotate(46.7578 899.574 707.044)" fill="#FC354C"/>
<ellipse cx="780.49" cy="767.627" rx="36.6802" ry="36.4237" transform="rotate(46.7578 780.49 767.627)" fill="#FC354C"/>
<ellipse cx="839.384" cy="823.51" rx="36.6802" ry="36.4237" transform="rotate(46.7578 839.384 823.51)" fill="#FC354C"/>
<ellipse cx="815.064" cy="693.563" rx="36.6802" ry="36.4237" transform="rotate(46.7578 815.064 693.563)" fill="#FC354C"/>
<ellipse cx="909.498" cy="785.741" rx="36.6802" ry="36.4237" transform="rotate(46.7578 909.498 785.741)" fill="#FC354C"/>
<defs>
<filter id="filter0_d" x="1023.87" y="690.146" width="224.049" height="228.949" filterUnits="userSpaceOnUse" color-interpolation-filters="sRGB">
<feFlood flood-opacity="0" result="BackgroundImageFix"/>
<feColorMatrix in="SourceAlpha" type="matrix" values="0 0 0 0 0 0 0 0 0 0 0 0 0 0 0 0 0 0 127 0" result="hardAlpha"/>
<feOffset dy="4"/>
<feGaussianBlur stdDeviation="2"/>
<feComposite in2="hardAlpha" operator="out"/>
<feColorMatrix type="matrix" values="0 0 0 0 0 0 0 0 0 0 0 0 0 0 0 0 0 0 0.25 0"/>
<feBlend mode="normal" in2="BackgroundImageFix" result="effect1_dropShadow"/>
<feBlend mode="normal" in="SourceGraphic" in2="effect1_dropShadow" result="shape"/>
</filter>
<filter id="filter1_d" x="620.965" y="906.188" width="210.725" height="191.942" filterUnits="userSpaceOnUse" color-interpolation-filters="sRGB">
<feFlood flood-opacity="0" result="BackgroundImageFix"/>
<feColorMatrix in="SourceAlpha" type="matrix" values="0 0 0 0 0 0 0 0 0 0 0 0 0 0 0 0 0 0 127 0" result="hardAlpha"/>
<feOffset dy="4"/>
<feGaussianBlur stdDeviation="2"/>
<feComposite in2="hardAlpha" operator="out"/>
<feColorMatrix type="matrix" values="0 0 0 0 0 0 0 0 0 0 0 0 0 0 0 0 0 0 0.25 0"/>
<feBlend mode="normal" in2="BackgroundImageFix" result="effect1_dropShadow"/>
<feBlend mode="normal" in="SourceGraphic" in2="effect1_dropShadow" result="shape"/>
</filter>
<filter id="filter2_d" x="1070.88" y="947.783" width="234.219" height="241.049" filterUnits="userSpaceOnUse" color-interpolation-filters="sRGB">
<feFlood flood-opacity="0" result="BackgroundImageFix"/>
<feColorMatrix in="SourceAlpha" type="matrix" values="0 0 0 0 0 0 0 0 0 0 0 0 0 0 0 0 0 0 127 0" result="hardAlpha"/>
<feOffset dy="4"/>
<feGaussianBlur stdDeviation="2"/>
<feComposite in2="hardAlpha" operator="out"/>
<feColorMatrix type="matrix" values="0 0 0 0 0 0 0 0 0 0 0 0 0 0 0 0 0 0 0.25 0"/>
<feBlend mode="normal" in2="BackgroundImageFix" result="effect1_dropShadow"/>
<feBlend mode="normal" in="SourceGraphic" in2="effect1_dropShadow" result="shape"/>
</filter>
<filter id="filter3_d" x="849.274" y="1106.36" width="194.128" height="200.429" filterUnits="userSpaceOnUse" color-interpolation-filters="sRGB">
<feFlood flood-opacity="0" result="BackgroundImageFix"/>
<feColorMatrix in="SourceAlpha" type="matrix" values="0 0 0 0 0 0 0 0 0 0 0 0 0 0 0 0 0 0 127 0" result="hardAlpha"/>
<feOffset dy="4"/>
<feGaussianBlur stdDeviation="2"/>
<feComposite in2="hardAlpha" operator="out"/>
<feColorMatrix type="matrix" values="0 0 0 0 0 0 0 0 0 0 0 0 0 0 0 0 0 0 0.25 0"/>
<feBlend mode="normal" in2="BackgroundImageFix" result="effect1_dropShadow"/>
<feBlend mode="normal" in="SourceGraphic" in2="effect1_dropShadow" result="shape"/>
</filter>
</defs>
</svg>
